<?xml version="1.0" encoding="UTF-8" standalone="no"?>
<svg
   xmlns:dc="http://purl.org/dc/elements/1.1/"
   xmlns:cc="http://creativecommons.org/ns#"
   xmlns:rdf="http://www.w3.org/1999/02/22-rdf-syntax-ns#"
   xmlns:svg="http://www.w3.org/2000/svg"
   xmlns="http://www.w3.org/2000/svg"
   xmlns:sodipodi="http://sodipodi.sourceforge.net/DTD/sodipodi-0.dtd"
   xmlns:inkscape="http://www.inkscape.org/namespaces/inkscape"
   width="16.0px"
   height="16.0px"
   viewBox="0 0 16.0 16.0"
   version="1.1"
   id="SVGRoot"
   sodipodi:docname="uph.svg"
   inkscape:version="1.0.1 (3bc2e813f5, 2020-09-07)">
  <defs
     id="defs49" />
  <sodipodi:namedview
     id="base"
     pagecolor="#ffffff"
     bordercolor="#666666"
     borderopacity="1.0"
     inkscape:pageopacity="0.0"
     inkscape:pageshadow="2"
     inkscape:zoom="15.839192"
     inkscape:cx="23.242925"
     inkscape:cy="2.4333176"
     inkscape:document-units="px"
     inkscape:current-layer="layer1"
     inkscape:document-rotation="0"
     showgrid="true"
     inkscape:window-width="1280"
     inkscape:window-height="666"
     inkscape:window-x="1899"
     inkscape:window-y="1072"
     inkscape:window-maximized="1"
     inkscape:object-paths="true">
    <inkscape:grid
       type="xygrid"
       id="grid58" />
  </sodipodi:namedview>
  <metadata
     id="metadata52">
    <rdf:RDF>
      <cc:Work
         rdf:about="">
        <dc:format>image/svg+xml</dc:format>
        <dc:type
           rdf:resource="http://purl.org/dc/dcmitype/StillImage" />
        <dc:title></dc:title>
      </cc:Work>
    </rdf:RDF>
  </metadata>
  <g
     inkscape:label="Layer 1"
     inkscape:groupmode="layer"
     id="layer1">
    <path
       style="fill:none;stroke:#000000;stroke-width:1px;stroke-linecap:butt;stroke-linejoin:miter;stroke-opacity:1"
       d="M 4,11 1,8 V 4 L 4,1 h 8 l 3,3 v 4 l -3,3 c 0,1.333333 1,1.666667 1,3 -0.666667,0 -1.333333,1 -2,1 0,-1 -1,-2 -1,-3 H 9 c 0,0 1,3 0,3 -1,0 -1,0 -2,0 -1,0 0,-3 0,-3 H 6 C 6,13 5,14 5,15 4.333333,15 3.666667,14 3,14 3,12.666667 4,12.333333 4,11 Z"
       id="path67"
       sodipodi:nodetypes="cccccccccccczsccccc" />
    <path
       style="fill:#ff0000;fill-rule:evenodd"
       id="path69-1"
       cx="8.5"
       cy="10.5"
       r="1.5"
       d="" />
    <path
       style="fill:#000000;stroke-width:0.0446429"
       d="M 4,9 C 3.688816,8.852806 3.383883,8.548618 3.244285,8.24613 3.096692,7.926318 3.101281,7.401958 3.254514,7.077451 3.45718,6.648259 3.791002,6.367435 4.245441,6.243845 4.895489,6.067058 5.611405,6.403416 5.928376,7.034537 6.021276,7.2195 6.039982,7.321439 6.042716,7.657463 6.046516,8.129127 5.949226,8.385005 5.650482,8.688649 5.367107,8.976674 5.095786,9.090885 4.648243,9.110537 4.30585,9.125577 4.24271,9.114837 4,9 Z"
       id="path122" />
    <path
       style="fill:#000000;stroke-width:0.0446429"
       d="M 11,9 C 10.40924,8.78844 10.022283,8.245369 10.017201,7.620698 c -0.0047,-0.579412 0.294905,-1.061635 0.825167,-1.328064 0.252288,-0.126762 0.33948,-0.147721 0.610316,-0.146712 0.538817,0.002 0.953557,0.22261 1.252981,0.666466 0.493919,0.732168 0.212097,1.724415 -0.601839,2.118973 C 11.881013,9.03937 11.781794,9.060636 11.502177,9.060314 11.318017,9.060101 11.092038,9.032961 11,9 Z"
       id="path124" />
    <path
       style="fill:#008000;stroke-width:0.0446429"
       d=""
       id="path128" />
    <path
       style="fill:#008000;stroke-width:0.0631345"
       d="m 7.0804844,14.249456 c 0,-0.371123 0.1734022,-1.20954 0.4150165,-2.006649 0.1189809,-0.392529 0.2163288,-0.728214 0.2163288,-0.745966 0,-0.01775 -0.5113897,-0.03228 -1.1364216,-0.03228 H 5.4389865 l -0.0015,0.426159 c -0.00107,0.30418 -0.043977,0.525547 -0.1499053,0.773398 -0.1319092,0.308643 -0.677244,1.513117 -0.710046,1.568273 -0.00702,0.01181 -0.1641009,-0.09121 -0.3490585,-0.228941 C 4.043519,13.865722 3.8257723,13.718773 3.7445951,13.676898 3.554536,13.578857 3.5910531,13.412794 3.9283611,12.841219 4.303131,12.206164 4.4292386,11.868395 4.4988541,11.313201 L 4.5620118,10.80951 3.0433286,9.2898777 1.5246454,7.7702449 V 6.002401 4.234557 L 2.8667925,2.8934989 4.2089397,1.5524407 h 3.7880845 3.7880838 l 1.341059,1.3421471 1.341058,1.3421471 v 1.7677325 1.7677324 l -1.483662,1.482654 -1.483661,1.4826542 v 0.397086 c 0,0.472154 0.175947,1.037561 0.477988,1.536017 0.11789,0.194552 0.268565,0.474836 0.334834,0.622853 l 0.12049,0.269121 -0.508402,0.340292 c -0.279621,0.187162 -0.511742,0.333036 -0.515825,0.324165 -0.0041,-0.0089 -0.10238,-0.229206 -0.218438,-0.489636 -0.116057,-0.26043 -0.306664,-0.686588 -0.423568,-0.947018 -0.173037,-0.385475 -0.212699,-0.552741 -0.213326,-0.899667 l -7.71e-4,-0.426159 H 9.4164621 c -0.6250319,0 -1.1364216,0.02308 -1.1364216,0.05129 0,0.02821 0.085991,0.305213 0.1910918,0.615561 0.2285205,0.674794 0.4402535,1.672075 0.4402535,2.073633 V 14.49502 H 7.9959351 7.0804844 Z M 5.4336416,8.9186447 C 5.842339,8.648182 6.0211888,8.3221825 6.0556738,7.784832 6.0884185,7.2746 6.0123347,7.0204608 5.7247174,6.6793531 5.2001146,6.0571859 4.1695665,6.0081195 3.5833964,6.5774007 3.2223117,6.9280816 3.1372484,7.1389375 3.1358293,7.6868355 c -0.00113,0.4374934 0.017086,0.5100849 0.1901488,0.7576146 0.1052712,0.1505683 0.3325555,0.3690428 0.5050763,0.4854988 0.304288,0.2054026 0.3291162,0.2109445 0.8297282,0.18519 0.42776,-0.022006 0.5599919,-0.055625 0.772859,-0.1964942 z m 6.8699354,-0.05995 C 12.46345,8.7557134 12.64826,8.5536652 12.764109,8.3552088 12.940853,8.0524332 12.955999,7.9823286 12.939019,7.5456049 12.923484,7.1460586 12.891381,7.0235852 12.74368,6.8003992 11.976343,5.6409015 10.167485,6.0475621 10.005413,7.4160056 c -0.072373,0.6110722 0.249379,1.2318109 0.790695,1.5254452 0.356754,0.19352 1.145814,0.1502027 1.507469,-0.082756 z"
       id="path27" />
    <text
       xml:space="preserve"
       style="font-size:5.33333px;line-height:1.25;font-family:creepster;-inkscape-font-specification:creepster"
       x="4.0304575"
       y="5.7960052"
       id="text31"><tspan
         sodipodi:role="line"
         id="tspan29"
         x="4.0304575"
         y="5.7960052"
         style="fill:#ff0000">uph</tspan></text>
  </g>
</svg>
